#!OML:ASF E:\emotionWalksFemale\Project 1\Capture day 1\Session 1\Female1.ASF
:FULLY-SPECIFIED
:DEGREES
295
root 7.85645 15.1757 41.7734 -178.521 -4.13405 -179.608
lowerback 6.09774 1.03285 0.999873
upperback -3.6786 1.39116 -0.490673
thorax -7.23815 0.597957 -1.243
lowerneck -4.17513 -3.76881 -7.65803
upperneck 10.3147 -5.68721 8.50871
head 4.21282 -2.81276 3.56767
rclavicle -6.83322e-016 -2.08724e-015
rhumerus -46.9368 13.2602 -97.807
rradius 35.1747
rwrist 8.09485
rhand -6.7499 -59.6074
rfingers 7.12502
rthumb 19.1113 -448.688
lclavicle -6.83322e-016 -2.08724e-015
lhumerus -41.2095 -10.4027 93.2863
lradius 36.3819
lwrist -13.3998
lhand -2.01997 -35.1175
lfingers 7.12502
lthumb 23.6542 -6.55272
rfemur -6.15378 16.0874 21.5894
rtibia 27.4081
rfoot -25.7026 -27.1712
rtoes 10.8026
lfemur -7.43044 -23.277 -26.5497
ltibia 27.2615
lfoot -26.2904 21.5593
ltoes -26.8114
296
root 7.84732 15.1771 41.7727 -178.424 -3.89787 -179.615
lowerback 5.95114 1.05054 0.998886
upperback -3.67997 1.41242 -0.483089
thorax -7.15424 0.608915 -1.23361
lowerneck -4.32716 -3.73086 -7.58175
upperneck 10.3702 -5.62553 8.44491
head 4.24635 -2.77761 3.53615
rclavicle 1.6847e-014 -1.88845e-015
rhumerus -46.7639 13.2251 -97.6771
rradius 35.0297
rwrist 8.30339
rhand -7.03078 -58.3455
rfingers 7.12502
rthumb 18.8412 -447.453
lclavicle 1.6847e-014 -1.88845e-015
lhumerus -41.0473 -10.4778 93.3079
lradius 36.0843
lwrist -13.4245
lhand -2.48398 -35.778
lfingers 7.12502
lthumb 23.2091 -7.15645
rfemur -6.34967 16.0779 21.4784
rtibia 27.4805
rfoot -25.5706 -27.0344
rtoes 10.4337
lfemur -7.48051 -23.3367 -26.5717
ltibia 27.1723
lfoot -26.4732 21.5324
ltoes -26.6623
297
root 7.84042 15.1763 41.7715 -178.38 -3.63401 -179.72
lowerback 5.88448 1.06639 0.850025
upperback -3.68842 1.41726 -0.498081
thorax -7.12757 0.617819 -1.16488
lowerneck -4.34169 -3.66648 -7.51451
upperneck 10.3975 -5.53959 8.39401
head 4.24669 -2.73523 3.51418
rclavicle -5.10628e-015 -6.85807e-015
rhumerus -46.7399 13.2433 -97.6456
rradius 34.9862
rwrist 8.54825
rhand -7.48487 -57.6987
rfingers 7.12502
rthumb 18.4044 -446.848
lclavicle -5.10628e-015 -6.85807e-015
lhumerus -41.1096 -10.4046 93.2513
lradius 36.0793
lwrist -13.5533
lhand -2.94444 -36.1117
lfingers 7.12502
lthumb 22.7673 -7.43511
rfemur -6.47524 16.1538 21.2938
rtibia 27.5366
rfoot -25.3976 -27.1151
rtoes 9.26912
lfemur -7.4527 -23.2503 -26.7267
ltibia 27.1182
lfoot -26.5527 21.7572
ltoes -25.9627
298
root 7.8335 15.1762 41.7732 -178.393 -3.4796 -179.776
lowerback 5.91355 1.03473 0.757328
upperback -3.67768 1.36911 -0.469879
thorax -7.13694 0.599649 -1.07817
lowerneck -4.35873 -3.62012 -7.49671
upperneck 10.3527 -5.45812 8.30469
head 4.22661 -2.69634 3.48828
rclavicle -2.04872e-014 5.76476e-015
rhumerus -46.8136 13.3387 -97.6526
rradius 35.0468
rwrist 8.5619
rhand -7.76386 -57.4325
rfingers 7.12502
rthumb 18.136 -446.607
lclavicle -2.04872e-014 5.76476e-015
lhumerus -41.2195 -10.2367 93.2132
lradius 36.2472
lwrist -13.8064
lhand -3.23089 -36.0987
lfingers 7.12502
lthumb 22.4924 -7.38864
rfemur -6.52181 16.2135 21.1942
rtibia 27.6099
rfoot -25.4119 -26.994
rtoes 9.2132
lfemur -7.39131 -23.2068 -26.833
ltibia 27.0787
lfoot -26.6054 21.8604
ltoes -25.7534
299
root 7.82595 15.1782 41.7768 -178.347 -3.31235 -179.758
lowerback 5.88176 1.02173 0.761618
upperback -3.65903 1.35525 -0.426805
thorax -7.09987 0.594447 -1.0329
lowerneck -4.54542 -3.62159 -7.39583
upperneck 10.442 -5.42667 8.05677
head 4.27387 -2.68123 3.39316
rclavicle -1.20513e-015 7.45443e-015
rhumerus -46.8157 13.4425 -97.6231
rradius 35.1229
rwrist 8.47063
rhand -8.02591 -57.855
rfingers 7.12502
rthumb 17.8839 -447.053
lclavicle -1.20513e-015 7.45443e-015
lhumerus -41.1758 -10.3866 93.3176
lradius 36.2875
lwrist -13.7315
lhand -3.03163 -35.8151
lfingers 7.12502
lthumb 22.6836 -7.1283
rfemur -6.6162 16.2581 21.1445
rtibia 27.6279
rfoot -25.3801 -26.6945
rtoes 9.9268
lfemur -7.46089 -23.2062 -26.8324
ltibia 27.1191
lfoot -26.8876 21.8088
ltoes -24.7749
300
root 7.81754 15.1764 41.7784 -178.3 -3.04939 -179.63
lowerback 5.82624 1.05256 0.923856
upperback -3.66829 1.41229 -0.391284
thorax -7.07343 0.615462 -1.0923
lowerneck -4.56496 -3.60602 -7.24993
upperneck 10.4374 -5.38325 7.81426
head 4.26251 -2.66348 3.29625
rclavicle 2.88238e-015 2.88238e-015
rhumerus -46.7794 13.3921 -97.559
rradius 35.1706
rwrist 8.52994
rhand -7.95731 -59.154
rfingers 7.12502
rthumb 17.9499 -448.346
lclavicle 2.88238e-015 2.88238e-015
lhumerus -41.1696 -10.752 93.4829
lradius 36.3716
lwrist -13.3342
lhand -2.55267 -35.4678
lfingers 7.12502
lthumb 23.1432 -6.83794
rfemur -6.79037 16.4315 21.2128
rtibia 27.7031
rfoot -25.1302 -26.7424
rtoes 9.38298
lfemur -7.52093 -23.0011 -26.7041
ltibia 27.0908
lfoot -27.1384 21.6724
ltoes -24.839
301
root 7.8076 15.1741 41.78 -178.324 -2.79108 -179.396
lowerback 5.885 1.07591 1.23231
upperback -3.69247 1.47447 -0.349063
thorax -7.12545 0.631329 -1.23014
lowerneck -4.37126 -3.52988 -7.19657
upperneck 10.2366 -5.27687 7.78805
head 4.15875 -2.61385 3.28965
rclavicle -1.47225e-015 -2.5842e-015
rhumerus -46.7533 13.2468 -97.518
rradius 35.1373
rwrist 8.62527
rhand -7.89088 -59.6922
rfingers 7.12502
rthumb 18.0138 -448.878
lclavicle -1.47225e-015 -2.5842e-015
lhumerus -41.1855 -10.9023 93.5368
lradius 36.382
lwrist -13.1898
lhand -2.71075 -35.4424
lfingers 7.12502
lthumb 22.9915 -6.79355
rfemur -6.90577 16.5598 21.4023
rtibia 27.769
rfoot -24.9532 -26.8742
rtoes 8.27072
lfemur -7.50818 -22.8622 -26.4997
ltibia 27.0638
lfoot -27.3287 21.6443
ltoes -23.6388
302
root 7.79665 15.1736 41.779 -178.519 -2.65667 -179.765
lowerback 6.06807 1.06011 0.902663
upperback -3.62293 1.42235 -0.449617
thorax -7.16396 0.620707 -1.14775
lowerneck -4.2914 -3.49546 -7.14814
upperneck 10.1182 -5.22873 7.78351
head 4.10443 -2.58979 3.28481
rclavicle -9.18758e-015 -5.96354e-016
rhumerus -46.7179 13.18 -97.4896
rradius 35.0989
rwrist 8.64886
rhand -8.06315 -59.4651
rfingers 7.12502
rthumb 17.8481 -448.666
lclavicle -9.18758e-015 -5.96354e-016
lhumerus -41.0722 -10.6013 93.441
lradius 36.2276
lwrist -13.4892
lhand -2.9018 -35.4378
lfingers 7.12502
lthumb 22.8082 -6.76633
rfemur -6.71444 16.4889 20.9758
rtibia 27.8362
rfoot -25.1297 -26.5759
rtoes 8.19073
lfemur -7.16895 -23.2216 -27.1142
ltibia 27.0258
lfoot -27.557 21.9881
ltoes -22.4262
303
root 7.78632 15.1759 41.7809 -178.508 -2.60315 -179.78
lowerback 6.02779 1.02079 0.932722
upperback -3.5974 1.37261 -0.450489
thorax -7.11395 0.595663 -1.15828
lowerneck -4.21108 -3.452 -7.09113
upperneck 9.95036 -5.15691 7.73498
head 4.03215 -2.5543 3.26644
rclavicle -6.39838e-015 -3.97569e-016
rhumerus -46.6183 13.1437 -97.406
rradius 35.0179
rwrist 8.71237
rhand -8.19513 -59.4123
rfingers 7.12502
rthumb 17.7211 -448.625
lclavicle -6.39838e-015 -3.97569e-016
lhumerus -40.7502 -9.73842 93.1088
lradius 35.9044
lwrist -14.3466
lhand -2.67805 -35.7596
lfingers 7.12502
lthumb 23.0229 -7.11469
rfemur -6.75995 16.4797 20.902
rtibia 27.8966
rfoot -25.1767 -26.3398
rtoes 8.47859
lfemur -7.11497 -23.5325 -27.2036
ltibia 26.9786
lfoot -27.5105 22.2771
ltoes -21.9512
304
root 7.77778 15.1742 41.783 -178.543 -2.56672 -179.629
lowerback 6.08565 1.00514 1.15806
upperback -3.60447 1.37527 -0.422374
thorax -7.15061 0.586574 -1.25702
lowerneck -4.17026 -3.42109 -7.17519
upperneck 9.93227 -5.11836 7.80727
head 4.02062 -2.53637 3.30556
rclavicle 6.27414e-016 7.95139e-016
rhumerus -46.6301 13.044 -97.3363
rradius 34.9991
rwrist 8.69068
rhand -8.2438 -59.5117
rfingers 7.12502
rthumb 17.6742 -448.728
lclavicle 6.27414e-016 7.95139e-016
lhumerus -40.8376 -9.88739 93.2219
lradius 35.9754
lwrist -14.3551
lhand -2.90192 -36.1614
lfingers 7.12502
lthumb 22.8081 -7.48986
rfemur -6.78722 16.6154 21.0646
rtibia 28.0043
rfoot -25.2259 -26.4655
rtoes 8.66527
lfemur -7.06542 -23.2564 -27.0453
ltibia 26.8713
lfoot -27.3293 22.0719
ltoes -21.5643
